HIERARCHY
ROOT hip
{
	OFFSET 0.000000 0.000000 0.000000 
	CHANNELS 6 Xposition Yposition Zposition Xrotation Zrotation Yrotation
	JOINT abdomen
	{
		OFFSET 0.000000 3.402643 0.000000 
		CHANNELS 3 Xrotation Zrotation Yrotation
		JOINT chest
		{
			OFFSET 0.000000 8.438565 -0.680529 
			CHANNELS 3 Xrotation Zrotation Yrotation
			JOINT neck
			{
				OFFSET 0.000000 10.207942 -0.272212 
				CHANNELS 3 Xrotation Zrotation Yrotation
				JOINT head
				{
					OFFSET 0.000000 3.130431 0.000000 
					CHANNELS 3 Xrotation Zrotation Yrotation
					End Site
					{
						OFFSET 0.000000 3.130435 0.000000 
					}
				}
			}
			JOINT lCollar
			{
				OFFSET 3.470700 6.669187 -0.816635 
				CHANNELS 3 Yrotation Zrotation Xrotation
				JOINT lShldr
				{
					OFFSET 3.198488 0.000000 0.000000 
					CHANNELS 3 Zrotation Yrotation Xrotation
					JOINT lForeArm
					{
						OFFSET 10.139888 0.000000 0.000000 
						CHANNELS 3 Yrotation Zrotation Xrotation
						JOINT lHand
						{
							OFFSET 8.370511 0.000000 0.000000 
							CHANNELS 3 Zrotation Yrotation Xrotation
							End Site
							{
								OFFSET 4.083176 0.000000 0.000000 
							}
						}
					}
				}
			}
			JOINT rCollar
			{
				OFFSET -3.470700 6.669187 -0.816635 
				CHANNELS 3 Yrotation Zrotation Xrotation
				JOINT rShldr
				{
					OFFSET -3.198488 0.000000 0.000000 
					CHANNELS 3 Zrotation Yrotation Xrotation
					JOINT rForeArm
					{
						OFFSET -10.139888 0.000000 0.000000 
						CHANNELS 3 Yrotation Zrotation Xrotation
						JOINT rHand
						{
							OFFSET -8.370511 0.000000 0.000000 
							CHANNELS 3 Zrotation Yrotation Xrotation
							End Site
							{
								OFFSET -4.083176 0.000000 0.000000 
							}
						}
					}
				}
			}
		}
	}
	JOINT lThigh
	{
		OFFSET 5.308129 -1.633274 1.361059 
		CHANNELS 3 Xrotation Zrotation Yrotation
		JOINT lShin
		{
			OFFSET -2.041588 -20.007561 0.000000 
			CHANNELS 3 Xrotation Zrotation Yrotation
			JOINT lFoot
			{
				OFFSET 0.000000 -19.190928 -1.224953 
				CHANNELS 3 Xrotation Yrotation Zrotation
				End Site
				{
					OFFSET 0.000000 -2.449906 4.627600 
				}
			}
		}
	}
	JOINT rThigh
	{
		OFFSET -5.308129 -1.633274 1.361059 
		CHANNELS 3 Xrotation Zrotation Yrotation
		JOINT rShin
		{
			OFFSET 2.041588 -20.007561 0.000000 
			CHANNELS 3 Xrotation Zrotation Yrotation
			JOINT rFoot
			{
				OFFSET 0.000000 -19.190928 -1.224953 
				CHANNELS 3 Xrotation Yrotation Zrotation
				End Site
				{
					OFFSET 0.000000 -2.449906 4.627600 
				}
			}
		}
	}
}
MOTION
Frames: 13
Frame Time: 0.033333
9.497780 35.227409 15.583941 -5.171665 -6.015624 -0.039871 5.019107 -0.166015 0.146484 12.701114 6.433262 1.533538 24.198475 -3.504521 -1.585041 -33.461445 5.349414 1.628599 5.303877 -3.671440 0.322109 -17.001780 0.662456 -72.325119 -13.871672 -2.458493 -23.205538 1.644208 -3.403038 -3.510995 -0.752369 -1.220447 -0.019525 31.164419 -7.437746 -87.598206 9.880470 1.311909 -0.317630 -1.662539 3.382353 -3.511080 -33.103958 34.851753 2.331102 94.380165 -18.974943 4.262571 -11.837761 1.939685 -3.852515 -41.712044 -37.523067 -2.613363 69.154419 21.911404 -1.552814 8.407998 2.862581 -7.118171 
9.234671 34.453262 15.568762 -5.208228 -5.663333 0.922161 5.019107 -0.166015 0.146484 13.116584 5.478189 0.628671 23.984755 -2.743507 -1.232330 -33.459118 5.320568 1.451762 5.299595 -3.313726 0.282654 -17.583927 0.076905 -73.019562 -13.896749 -2.456437 -23.164934 1.644208 -3.403038 -3.510995 -0.839964 -0.351276 -0.019529 32.482502 -7.125125 -87.444038 10.006076 1.330019 -0.654255 -1.662539 3.382353 -3.511080 -35.735874 34.749622 2.333092 98.399292 -17.889637 3.176941 -12.599873 1.941065 -3.859317 -42.359879 -37.281967 -2.601195 78.748138 22.206469 2.376754 4.618007 2.848010 -7.117489 
8.971675 33.678635 15.553515 -5.252122 -5.299887 1.882316 5.019107 -0.166015 0.146484 13.552549 4.531199 -0.274126 23.780420 -1.982188 -0.879731 -33.465473 5.291646 1.285552 5.286498 -2.945385 0.253499 -18.161062 -0.504075 -73.692383 -13.921840 -2.454419 -23.123919 1.644208 -3.403038 -3.510995 -0.927644 0.527502 -0.009854 33.801811 -6.821531 -87.280525 10.131836 1.338650 -0.981015 -1.662539 3.382353 -3.511080 -38.377117 34.666340 2.338357 102.369980 -16.746622 2.203645 -13.372881 1.914429 -3.836990 -43.003551 -37.046982 -2.607085 88.329536 21.884790 6.284801 0.831240 2.869324 -7.125632 
8.759162 32.686909 15.507976 -5.251365 -4.556881 2.301629 5.019107 -0.166015 0.146484 14.367455 3.271277 -0.645153 23.179270 -1.415934 -0.615529 -33.567993 5.194463 1.039746 5.245877 -2.810626 0.234072 -18.813860 -1.528582 -73.887222 -13.955034 -2.453353 -23.063059 1.644208 -3.403038 -3.510995 -1.093978 1.337704 0.009761 35.163303 -6.212231 -87.310677 10.214270 1.348667 -1.134508 -1.662539 3.382353 -3.511080 -40.442131 34.339565 2.294609 105.525543 -16.054022 0.255194 -13.157370 1.933590 -3.838881 -43.881538 -36.401752 -2.511957 95.103722 20.809570 8.103847 -2.161634 2.856043 -7.115525 
8.546762 31.694813 15.462317 -5.250602 -3.823791 2.730262 5.019107 -0.166015 0.146484 15.178655 2.021160 -1.025786 22.583483 -0.849592 -0.361433 -33.670410 5.106946 0.785103 5.196076 -2.684757 0.224358 -19.460766 -2.550894 -74.058548 -13.987844 -2.454718 -22.993156 1.644208 -3.403038 -3.510995 -1.261230 2.147578 0.039026 36.523193 -5.604490 -87.326950 10.287065 1.358471 -1.288192 -1.662539 3.382353 -3.511080 -42.513985 34.038425 2.251976 108.649673 -15.244554 -1.624839 -12.942285 1.938007 -3.837559 -44.739185 -35.755974 -2.442429 101.795822 19.540895 9.768744 -5.162513 2.834581 -7.131103 
8.384850 30.531055 15.361119 -5.189317 -3.014309 2.669514 5.019107 -0.166015 0.146484 16.380405 0.898294 -1.025418 21.500216 -0.937480 -0.371204 -33.695812 5.390122 0.785134 4.982771 -2.948418 0.234187 -20.099590 -3.902313 -73.758484 -14.038102 -2.450997 -22.911573 1.644208 -3.403038 -3.510995 -1.222968 2.655209 0.048765 37.870632 -4.732316 -87.646179 10.221852 1.342812 -1.057610 -1.662539 3.382353 -3.511080 -44.262646 33.775410 2.228727 111.058586 -14.592643 -2.945240 -12.453564 1.941764 -3.837843 -45.985329 -34.745300 -2.361569 106.058266 17.957811 9.007584 -8.444988 2.825238 -7.120576 
8.223037 29.367027 15.259821 -5.120430 -2.214501 2.609247 5.019107 -0.166015 0.146484 17.582260 -0.224571 -1.054718 20.407448 -1.035132 -0.390738 -33.722050 5.683076 0.775429 4.770146 -3.221104 0.253727 -20.744787 -5.246623 -73.439316 -14.076082 -2.439796 -22.840372 1.644208 -3.403038 -3.510995 -1.184347 3.172820 0.048743 39.217716 -3.859327 -87.940948 10.157073 1.336415 -0.827167 -1.662539 3.382353 -3.511080 -46.029083 33.520805 2.210400 113.463905 -13.851535 -4.232053 -11.975612 1.908858 -3.845744 -47.199352 -33.724773 -2.288003 110.321564 16.435448 8.116584 -11.736333 2.818488 -7.119935 
8.106663 28.081846 15.113086 -4.934342 -1.414689 2.481159 5.019107 -0.166015 0.146484 19.024969 -1.113082 -1.084349 18.903133 -1.660075 -0.566734 -33.698017 6.278148 1.101073 4.224488 -3.634392 0.244228 -21.318317 -6.867373 -72.665306 -14.108967 -2.441440 -22.770086 1.644208 -3.403038 -3.510995 -0.851895 3.349029 0.038991 40.498158 -2.854822 -88.076973 9.990438 1.312212 -0.423515 -1.662539 3.382353 -3.511080 -48.065281 33.221878 2.174670 115.927666 -12.882493 -4.630577 -12.199297 1.942022 -3.849782 -49.265678 -32.928387 -2.197399 113.662376 14.666776 5.930423 -15.731415 2.823213 -7.101607 
7.990324 26.796505 14.966285 -4.752229 -0.624473 2.353589 5.019107 -0.166015 0.146484 20.460054 -2.011318 -1.143588 17.392365 -2.304504 -0.723250 -33.666931 6.882653 1.426874 3.678691 -4.047496 0.234689 -21.911333 -8.486113 -71.875969 -14.147430 -2.428035 -22.708368 1.644208 -3.403038 -3.510995 -0.508414 3.525304 0.009747 41.773575 -1.854965 -88.186874 9.814672 1.297164 -0.009841 -1.662539 3.382353 -3.511080 -50.100101 32.905067 2.164201 118.402954 -11.879251 -4.951257 -12.462896 1.946992 -3.856973 -51.274738 -32.086903 -2.133884 117.035835 13.065292 3.658042 -19.725597 2.810979 -7.103612 
7.889127 25.440489 14.789194 -4.356717 -0.029270 2.441406 5.019107 -0.166015 0.146484 21.924990 -2.538360 -1.349361 15.797705 -2.704839 -0.762714 -34.200245 7.038610 1.505615 2.895566 -4.306565 0.195980 -22.146620 -10.521858 -70.636589 -14.164096 -2.427734 -22.678173 1.644208 -3.403038 -3.510995 -0.106834 3.447284 -0.010335 42.623714 -0.714146 -88.778519 9.552302 1.251130 0.876332 -1.662539 3.382353 -3.511080 -53.174938 32.699425 2.139198 121.608459 -10.346951 -4.667818 -13.518594 1.932595 -3.859737 -54.754261 -31.678802 -2.066568 120.539612 11.101492 1.081765 -22.780951 2.833433 -7.130933 
7.787967 24.084469 14.612112 -3.958849 0.575606 2.539228 5.019107 -0.166015 0.146484 23.384216 -3.075041 -1.555213 14.212702 -3.095408 -0.792498 -34.732849 7.204304 1.585568 2.112056 -4.554806 0.157202 -22.426641 -12.551619 -69.390343 -14.171828 -2.431176 -22.648886 1.644208 -3.403038 -3.510995 0.284928 3.368995 -0.029820 43.465462 0.443396 -89.354904 9.283999 1.197036 1.763849 -1.662539 3.382353 -3.511080 -56.246506 32.488029 2.134781 124.807182 -8.823018 -4.312716 -14.583460 1.943675 -3.849210 -58.215527 -31.255646 -2.049725 124.115753 9.295451 -1.566529 -25.807381 2.846256 -7.152242 
7.701951 22.728441 14.440080 -3.562641 0.829071 2.822676 5.019107 -0.166015 0.146484 24.926176 -3.162091 -2.024869 12.824887 -2.792786 -0.655423 -36.079941 6.638699 1.386911 1.462562 -4.382279 0.098085 -22.040716 -14.943269 -67.678185 -14.143883 -2.431234 -22.747536 1.644208 -3.403038 -3.510995 0.637356 3.036568 -0.049274 43.547871 1.830729 -91.195999 9.131966 1.106634 3.229977 -1.662539 3.382353 -3.511080 -60.520443 32.622810 2.144531 128.463394 -6.900377 -3.181502 -15.326598 1.920433 -3.847336 -62.883678 -31.129185 -2.033619 127.891785 7.321630 -3.960417 -26.745956 2.847549 -7.127387 
7.615970 21.372728 14.268143 -3.173322 1.082372 3.125733 5.019107 -0.166015 0.146484 26.478359 -3.239146 -2.484780 11.447693 -2.470606 -0.508603 -37.431614 6.082664 1.199185 0.803649 -4.198672 0.039669 -21.728638 -17.346128 -65.956741 -14.110446 -2.446529 -22.837648 1.644208 -3.403038 -3.510995 0.989096 2.704068 -0.058981 43.587482 3.223665 -93.032928 8.990123 1.017659 4.687640 -1.662539 3.382353 -3.511080 -64.800842 32.761574 2.156778 132.139526 -5.071197 -1.923326 -16.069870 1.887867 -3.840024 -67.547371 -31.014877 -2.063887 131.743149 5.499036 -6.473369 -27.683125 2.850183 -7.135475 
